<?xml version="1.0" encoding="iso-8859-1"?>
<!-- Generator: Adobe Illustrator 19.0.0, SVG Export Plug-In . SVG Version: 6.00 Build 0)  -->
<svg version="1.1" id="Capa_1" xmlns="http://www.w3.org/2000/svg" xmlns:xlink="http://www.w3.org/1999/xlink" x="0px" y="0px"
	 viewBox="0 0 512 512" style="enable-background:new 0 0 512 512;" xml:space="preserve">
<path style="fill:#AAE6FF;" d="M496.088,230.044l-15.757-103.733c-6.171-40.626-41.082-70.66-82.174-70.694l-42.756-0.036
	c-20.845-0.018-37.735-16.921-37.735-37.767V10H256h-61.666v7.814c0,20.845-16.889,37.749-37.735,37.767l-42.756,0.036
	c-41.092,0.035-76.003,30.068-82.174,70.694L15.912,230.044l101.334,43.789v16.477V502h277.508V273h0.738L496.088,230.044z"/>
<path style="fill:#6E87F5;" d="M156.599,55.581l-1.5,0.001v0.034h203.822v-0.033L355.4,55.58
	c-20.845-0.018-37.735-16.921-37.735-37.767V10H256h-61.666v7.814C194.334,38.659,177.445,55.563,156.599,55.581z"/>
<g>
	<path style="fill:#FF5A5A;" d="M395.492,290.311l-4.615-53.649l0,0c-45.568,44.379-71.271,105.289-71.271,168.897V502h75.148
		V290.311H395.492z"/>
	<path style="fill:#FF5A5A;" d="M118.816,290.311l4.615-53.649l0,0c45.568,44.379,71.271,105.289,71.271,168.897V502h-75.148
		V290.311H118.816z"/>
</g>
<path d="M394.75,391.359c-2.63,0-5.2,1.07-7.07,2.931c-1.86,1.859-2.93,4.439-2.93,7.069c0,2.631,1.069,5.21,2.93,7.07
	c1.87,1.87,4.44,2.93,7.07,2.93s5.21-1.06,7.069-2.93c1.87-1.86,2.931-4.439,2.931-7.07c0-2.63-1.07-5.21-2.931-7.069
	C399.96,392.43,397.39,391.359,394.75,391.359z"/>
<path d="M505.975,228.542l-15.758-103.733c-3.344-22.011-14.479-42.129-31.356-56.647c-16.877-14.52-38.433-22.526-60.695-22.545
	l-42.757-0.036c-15.297-0.012-27.742-12.468-27.742-27.767V10c0-5.522-4.478-10-10-10H194.334c-5.522,0-10,4.478-10,10v7.813
	c0,15.299-12.445,27.755-27.743,27.767l-42.756,0.036c-22.263,0.019-43.818,8.025-60.695,22.545
	c-16.877,14.519-28.013,34.637-31.356,56.647L6.025,228.542c-0.685,4.508,1.767,8.908,5.96,10.698l95.261,40.678V502
	c0,5.522,4.478,10,10,10h277.508c5.522,0,10-4.478,10-10v-56c0-5.522-4.478-10-10-10s-10,4.478-10,10v46h-55.147v-86.441
	c0-54.15,19.912-107.014,55.147-147.8V356c0,5.522,4.478,10,10,10s10-4.478,10-10v-76.082l95.261-40.678
	C504.208,237.45,506.659,233.05,505.975,228.542z M316.617,45.616H266v-24.21c0-0.479-0.045-0.946-0.11-1.406h41.826
	C308.147,29.525,311.385,38.333,316.617,45.616z M246.11,20c-0.065,0.461-0.11,0.928-0.11,1.406v24.21h-50.617
	c5.233-7.284,8.47-16.091,8.902-25.616C204.285,20,246.11,20,246.11,20z M127.246,257.758
	c35.235,40.785,55.147,93.65,55.147,147.801V492h-55.147V257.758z M404.754,258.172v-65.617c0-5.522-4.478-10-10-10s-10,4.478-10,10
	v36.206c-0.294,0.229-0.581,0.471-0.854,0.738c-23.64,23.022-42.131,50.111-54.96,80.514s-19.334,62.549-19.334,95.547V492H202.394
	v-86.441c0-32.998-6.505-65.145-19.334-95.547s-31.32-57.491-54.96-80.515l-0.854,0.876v-37.819c0-5.522-4.478-10-10-10
	s-10,4.478-10,10v65.617l-80.284-34.283l14.595-96.076c5.47-36.009,35.874-62.166,72.296-62.196H246v180.682c0,5.522,4.478,10,10,10
	c5.522,0,10-4.478,10-10V65.616h132.147c36.422,0.03,66.826,26.188,72.296,62.196l14.595,96.076L404.754,258.172z"/>
<path d="M256,271.76c-2.63,0-5.21,1.06-7.07,2.93c-1.86,1.86-2.93,4.44-2.93,7.07s1.069,5.21,2.93,7.07
	c1.86,1.859,4.44,2.93,7.07,2.93c2.63,0,5.21-1.07,7.069-2.93c1.86-1.86,2.931-4.44,2.931-7.07s-1.07-5.21-2.931-7.07
	C261.21,272.819,258.63,271.76,256,271.76z"/>
<g>
</g>
<g>
</g>
<g>
</g>
<g>
</g>
<g>
</g>
<g>
</g>
<g>
</g>
<g>
</g>
<g>
</g>
<g>
</g>
<g>
</g>
<g>
</g>
<g>
</g>
<g>
</g>
<g>
</g>
</svg>
