<?xml version="1.0" encoding="iso-8859-1"?>
<!-- Generator: Adobe Illustrator 19.0.0, SVG Export Plug-In . SVG Version: 6.00 Build 0)  -->
<svg version="1.1" id="Capa_1" xmlns="http://www.w3.org/2000/svg" xmlns:xlink="http://www.w3.org/1999/xlink" x="0px" y="0px"
	 viewBox="0 0 512 512" style="enable-background:new 0 0 512 512;" xml:space="preserve">
<path style="fill:#FFD4CB;" d="M353.127,138.125v78.909c0,34.301-18.45,65.951-48.298,82.853l0,0
	c-30.209,17.151-67.207,17.172-97.436,0.054l-0.096-0.054C177.45,282.984,159,251.335,159,217.033V164L353.127,138.125z"/>
<g>
	<path style="fill:#34BFE0;" d="M157.396,244.127h-20.895c-13.099,0-23.715-10.618-23.715-23.716v-42.872
		c0-13.098,10.617-23.715,23.715-23.715h20.895"/>
	<path style="fill:#34BFE0;" d="M354.129,244.127h20.896c13.098,0,23.715-10.617,23.715-23.715V177.54
		c0-13.098-10.617-23.716-23.715-23.716h-20.896V244.127z"/>
	<path style="fill:#34BFE0;" d="M157.396,244.127h-20.895c-13.099,0-23.715-10.618-23.715-23.716v-42.872
		c0-13.098,10.617-23.715,23.715-23.715h20.895V244.127z"/>
</g>
<path style="fill:#657FC9;" d="M347.89,121.78c-12.895-38.429-49.176-66.113-91.918-66.113c-51.565,0-93.72,40.296-96.758,91.139
	l0,0l0,0c-0.116,1.945-0.182,3.904-0.182,5.879l0.109-0.012L159,164h112.746c17.098,0,33.792-5.196,47.869-14.9l28.272-19.488
	L347.89,121.78z"/>
<path style="fill:#D0E6EF;" d="M300,312.5v31.366l78.529,21.295c41.002,11.119,69.467,48.335,69.462,90.819L447.988,490H64v-34.039
	c0-42.474,28.457-79.682,69.449-90.804l78.467-21.291V312.5H300z"/>
<polygon style="fill:#FFD4CB;" points="211.917,343.866 256,489 300,343.866 300,302.453 212.137,302.453 "/>
<path style="fill:#FEB756;" d="M273.861,278.847h-23.165c-6.459,0-11.696-5.236-11.696-11.696v-10.386
	c0-6.459,5.236-11.696,11.696-11.696h23.165c6.459,0,11.696,5.236,11.696,11.696v10.386
	C285.556,273.611,280.32,278.847,273.861,278.847z"/>
<path d="M502,480h-44.011l0.003-24.02c0.005-46.885-31.594-88.199-76.845-100.471L310,336.216V312.5
	c0-1.294-0.254-2.527-0.701-3.662c0.152-0.085,0.307-0.164,0.459-0.25c21.727-12.303,38.017-31.771,46.586-54.461h18.681
	c18.59,0,33.715-15.124,33.715-33.715V177.54c0-9.866-4.26-18.756-11.037-24.927C397.043,74.966,333.73,12,255.989,12
	c-77.607,0-140.834,62.75-141.707,140.212c-7.04,6.184-11.497,15.242-11.497,25.327v42.872c0,18.591,15.125,33.716,33.715,33.716
	h19.285c8.573,22.693,24.875,42.167,46.637,54.491l0.043,0.023c0.062,0.035,0.125,0.067,0.187,0.102
	c-0.471,1.161-0.736,2.427-0.736,3.757v23.717l-71.086,19.288C85.594,367.779,54,409.088,54,455.961V480H10c-5.523,0-10,4.478-10,10
	s4.477,10,10,10h492c5.523,0,10-4.478,10-10S507.523,480,502,480z M168.936,154c0.057-0.432,0.096-0.868,0.096-1.315
	c0-47.981,39.001-87.018,86.94-87.018c37.975,0,70.336,24.497,82.15,58.53l-24.182,16.669C301.476,149.458,286.886,154,271.746,154
	H168.936z M388.739,220.412c0,7.563-6.152,13.715-13.715,13.715h-13.306c0.926-5.602,1.409-11.315,1.409-17.094v-53.209h11.897
	c7.563,0,13.715,6.153,13.715,13.716V220.412z M255.989,32c63.783,0,116.26,49.355,121.322,111.91
	c-0.757-0.051-1.518-0.086-2.287-0.086H362.83c-0.106-0.434-0.239-0.858-0.4-1.268c-5.116-54.277-50.904-96.89-106.458-96.89
	c-55.985,0-102.054,43.277-106.571,98.157H136.5c-0.614,0-1.224,0.019-1.83,0.051C139.75,81.336,192.219,32,255.989,32z
	 M136.5,234.127c-7.563,0-13.715-6.153-13.715-13.716v-42.872c0-7.563,6.153-13.715,13.715-13.715h12.508
	c0,0.059-0.008,0.117-0.008,0.176v53.033c0,5.779,0.483,11.492,1.409,17.094H136.5z M169,217.033V174h102.746
	c19.212,0,37.728-5.764,53.545-16.667l17.314-11.935c0.2,2.403,0.307,4.832,0.307,7.286c0,0.707,0.075,1.395,0.215,2.061v62.288
	c0,12.991-2.988,25.577-8.451,36.923h-39.308c-1.383-10.64-10.498-18.886-21.508-18.886h-23.165
	c-11.963,0-21.696,9.732-21.696,21.695v10.386c0,11.963,9.733,21.696,21.696,21.696h23.165c9.586,0,17.735-6.253,20.597-14.892
	h26.838c-6.073,6.772-13.264,12.626-21.402,17.234c-27.001,15.327-60.556,15.348-87.624,0.019l-0.043-0.023
	C185.563,276.087,169,247.673,169,217.033z M275.556,267.151c0,0.936-0.761,1.696-1.696,1.696h-23.165
	c-0.935,0-1.696-0.761-1.696-1.696v-10.386c0-0.935,0.761-1.695,1.696-1.695h23.165c0.935,0,1.696,0.761,1.696,1.695V267.151z
	 M256.065,322.686c11.47,0,22.939-1.799,33.935-5.385v25.083l-34.009,112.18L221.917,342.38v-25.145
	C232.978,320.868,244.521,322.686,256.065,322.686z M74,455.961c0-37.866,25.523-71.238,62.068-81.153l69.101-18.75L242.815,480H74
	V455.961z M269.178,480l37.575-123.942l69.159,18.755c36.556,9.913,62.084,43.29,62.08,81.166L437.989,480H269.178z"/>
<path d="M398.74,432c-2.63,0-5.21,1.069-7.07,2.93s-2.93,4.44-2.93,7.07s1.07,5.21,2.93,7.069c1.86,1.86,4.44,2.931,7.07,2.931
	s5.21-1.07,7.07-2.931c1.86-1.859,2.93-4.439,2.93-7.069c0-2.641-1.07-5.21-2.93-7.07C403.95,433.069,401.37,432,398.74,432z"/>
<path d="M223.86,211.14c1.86-1.859,2.93-4.439,2.93-7.07c0-2.63-1.07-5.21-2.93-7.069c-1.86-1.86-4.44-2.931-7.07-2.931
	c-2.64,0-5.21,1.07-7.08,2.931c-1.86,1.859-2.93,4.439-2.93,7.069c0,2.631,1.07,5.211,2.93,7.07c1.87,1.86,4.44,2.93,7.08,2.93
	C219.42,214.069,222,213,223.86,211.14z"/>
<path d="M295.34,214.069c2.64,0,5.21-1.069,7.07-2.93c1.86-1.859,2.93-4.439,2.93-7.07c0-2.63-1.07-5.21-2.93-7.069
	c-1.86-1.86-4.43-2.931-7.07-2.931c-2.63,0-5.21,1.07-7.07,2.931c-1.86,1.859-2.93,4.439-2.93,7.069c0,2.631,1.07,5.211,2.93,7.07
	C290.13,213,292.71,214.069,295.34,214.069z"/>
<path d="M365,432h-39c-5.523,0-10,4.478-10,10s4.477,10,10,10h39c5.523,0,10-4.478,10-10S370.523,432,365,432z"/>
<g>
</g>
<g>
</g>
<g>
</g>
<g>
</g>
<g>
</g>
<g>
</g>
<g>
</g>
<g>
</g>
<g>
</g>
<g>
</g>
<g>
</g>
<g>
</g>
<g>
</g>
<g>
</g>
<g>
</g>
</svg>
