<?xml version="1.0" encoding="iso-8859-1"?>
<!-- Generator: Adobe Illustrator 19.0.0, SVG Export Plug-In . SVG Version: 6.00 Build 0)  -->
<svg version="1.1" id="Capa_1" xmlns="http://www.w3.org/2000/svg" xmlns:xlink="http://www.w3.org/1999/xlink" x="0px" y="0px"
	 viewBox="0 0 512 512" style="enable-background:new 0 0 512 512;" xml:space="preserve">
<path style="fill:#C73E3E;" d="M449.913,452.628l-12.86-181.348l-5.913-83.356c-1.707-24.124-21.775-42.817-45.949-42.817h-13.181
	H140.002H126.82c-24.184,0-44.243,18.693-45.96,42.817l-5.913,83.356l-12.86,181.348c-1.887,26.664,19.225,49.333,45.96,49.333
	h295.916C430.687,501.961,451.8,479.292,449.913,452.628z"/>
<path style="fill:#FBC640;" d="M311.452,319.91c0.161,1.185,0.241,2.399,0.241,3.624c0,15.38-12.469,27.849-27.849,27.849
	c-15.33,0-27.748-12.378-27.839-27.688c0-0.05,0-0.11,0-0.161c0-15.38,12.459-27.839,27.839-27.839
	C297.999,295.695,309.685,306.246,311.452,319.91z"/>
<path style="fill:#7D2727;" d="M283.844,295.695c-15.38,0-27.839,12.459-27.839,27.839c0-15.38-12.469-27.839-27.849-27.839
	c-14.155,0-25.831,10.551-27.598,24.215l-0.241-0.03c-41.291-5.652-71.67-16.926-92.17-27.206
	c-22.598-11.304-33.2-21.394-33.2-21.394l5.913-83.356c1.717-24.124,21.775-42.817,45.96-42.817h13.181h232.006h13.181
	c24.174,0,44.243,18.693,45.949,42.817l5.913,83.356c0,0-10.601,10.089-33.18,21.394c-20.54,10.29-50.999,21.594-92.421,27.236
	C309.685,306.246,297.999,295.695,283.844,295.695z"/>
<path style="fill:#FBC640;" d="M228.156,295.695c15.38,0,27.849,12.459,27.849,27.839c0,0.05,0,0.11,0,0.161
	c-0.09,15.31-12.519,27.688-27.849,27.688c-15.38,0-27.839-12.469-27.839-27.849c0-1.225,0.08-2.44,0.241-3.624
	C202.325,306.246,214.001,295.695,228.156,295.695z"/>
<path style="fill:#FF4F4F;" d="M256.005,323.694c0.09,15.31,12.509,27.688,27.839,27.688c15.38,0,27.849-12.469,27.849-27.849
	c0-1.225-0.08-2.44-0.241-3.624c41.422-5.642,71.881-16.946,92.421-27.236l0.09,0.191v209.097H108.047V292.864l0.1-0.191
	c20.5,10.28,50.879,21.554,92.17,27.206l0.241,0.03c-0.161,1.185-0.241,2.399-0.241,3.624c0,15.38,12.459,27.849,27.839,27.849
	C243.486,351.383,255.915,339.004,256.005,323.694z"/>
<path d="M52.073,451.919c-1.095,15.48,4.342,30.869,14.918,42.221c10.575,11.35,25.54,17.86,41.055,17.86h295.916
	c15.511,0,30.47-6.508,41.043-17.857c10.577-11.353,16.016-26.742,14.92-42.225l-18.773-264.703
	c-2.069-29.242-26.651-52.148-55.964-52.148h-3.142v-9.035c0-33.671-13.113-65.321-36.922-89.119
	C321.321,13.109,289.671,0,256.005,0c-69.5,0-126.042,56.538-126.042,126.032v9.035h-3.142c-29.306,0-53.893,22.904-55.974,52.146
	l-5.909,83.318c-0.002,0.021-0.003,0.043-0.005,0.064L52.073,451.919z M81.682,480.453c-6.892-7.397-10.294-17.028-9.58-27.115
	l11.564-163.057c3.992,2.588,8.768,5.456,14.342,8.443V490.51C91.825,488.736,86.216,485.32,81.682,480.453z M190.625,328.58
	c2.476,18.512,18.358,32.842,37.532,32.842c6.428,0,12.493-1.622,17.81-4.473v11.501c0,9.82-7.989,17.81-17.81,17.81
	c-5.545,0-10.039,4.496-10.039,10.039s4.495,10.039,10.039,10.039c11.003,0,20.921-4.718,27.849-12.233
	c6.928,7.514,16.847,12.233,27.849,12.233c5.545,0,10.039-4.496,10.039-10.039s-4.495-10.039-10.039-10.039
	c-9.82,0-17.81-7.989-17.81-17.81v-11.498c5.314,2.849,11.375,4.47,17.8,4.47c19.181,0,35.068-14.331,37.543-32.845
	c26.384-4.211,50.688-11.007,72.537-20.275v183.62H118.086v-183.62C139.924,317.57,164.228,324.366,190.625,328.58z
	 M301.496,321.197c0.003,0.021,0.005,0.042,0.008,0.063c0.099,0.732,0.15,1.497,0.15,2.273c0,9.82-7.989,17.81-17.81,17.81
	c-9.757,0-17.742-7.944-17.8-17.649v-0.161c0-9.814,7.985-17.799,17.8-17.799C292.767,305.734,300.355,312.382,301.496,321.197z
	 M245.966,323.635c-0.057,9.764-8.047,17.708-17.81,17.708c-9.814,0-17.8-7.989-17.8-17.81c0-0.775,0.05-1.54,0.159-2.336
	c1.139-8.814,8.724-15.462,17.641-15.462c9.82,0,17.81,7.984,17.81,17.799L245.966,323.635L245.966,323.635z M430.316,480.456
	c-4.532,4.864-10.136,8.279-16.314,10.054V298.727c5.569-2.987,10.342-5.854,14.332-8.442l11.564,163.053
	C440.612,463.426,437.21,473.058,430.316,480.456z M150.041,126.032c0-58.423,47.536-105.954,105.964-105.954
	c28.303,0,54.91,11.021,74.924,31.033c20.016,20.008,31.04,46.615,31.04,74.921v9.035H150.041L150.041,126.032L150.041,126.032z
	 M90.875,188.637c1.337-18.78,17.126-33.491,35.945-33.491h13.182h232.006h13.181c18.823,0,34.607,14.708,35.935,33.489
	l5.549,78.242c-4.539,3.548-13.555,9.94-27.298,16.822c-23.445,11.745-50.557,20.125-80.682,24.975
	c-5.827-13.628-19.399-23.017-34.851-23.017c-10.999,0-20.914,4.716-27.84,12.228c-6.928-7.511-16.846-12.228-27.848-12.228
	c-15.461,0-29.038,9.406-34.851,23.018c-30.136-4.853-57.242-13.234-80.665-24.98c-13.762-6.884-22.784-13.28-27.314-16.819
	L90.875,188.637z"/>
<path d="M374.233,189.407c12.919,0,12.941-20.078,0-20.078C361.313,169.328,361.292,189.407,374.233,189.407z"/>
<path d="M297.433,189.407h47.184c5.545,0,10.039-4.496,10.039-10.039s-4.495-10.039-10.039-10.039h-47.184
	c-5.545,0-10.039,4.496-10.039,10.039S291.888,189.407,297.433,189.407z"/>
<g>
</g>
<g>
</g>
<g>
</g>
<g>
</g>
<g>
</g>
<g>
</g>
<g>
</g>
<g>
</g>
<g>
</g>
<g>
</g>
<g>
</g>
<g>
</g>
<g>
</g>
<g>
</g>
<g>
</g>
</svg>
