<?xml version="1.0"?>
<svg xmlns="http://www.w3.org/2000/svg" id="filled_outline" height="512px" viewBox="0 0 512 512" width="512px" data-name="filled outline" class=""><g><path d="m472 224-32 184h-48v48l-136 32-136-32v-48h-48l-32-184 48-136 96-24h144l96 24z" fill="#548aff" data-original="#548AFF" class="" style="fill:#1273EB" data-old_color="#548aff"/><g fill="#7dafff"><path d="m288 176h64v64h-64z" data-original="#7DAFFF" class="" style="fill:#D7D7FF" data-old_color="#7DAFFF"/><path d="m256 72-40-48-32 40 32 48z" data-original="#7DAFFF" class="" style="fill:#D7D7FF" data-old_color="#7DAFFF"/><path d="m256 72 40-48 32 40-32 48z" data-original="#7DAFFF" class="" style="fill:#D7D7FF" data-old_color="#7DAFFF"/></g><path d="m296 24h-80l40 48z" fill="#548aff" data-original="#548AFF" class="" style="fill:#1273EB" data-old_color="#548aff"/><path d="m118.168 463.78711 136 32a7.98923 7.98923 0 0 0 3.66406 0l136-32a7.99845 7.99845 0 0 0 6.16794-7.78711v-40h40a8.00091 8.00091 0 0 0 7.88184-6.62891l32-184a8.01025 8.01025 0 0 0 -.33789-4.0332l-48-136a7.99736 7.99736 0 0 0 -5.60352-5.09863l-93.37943-23.34473-30.31393-37.89253a8.004 8.004 0 0 0 -6.167-3.002h-80.16015a8.004 8.004 0 0 0 -6.167 3.002l-30.31392 37.89253-93.37943 23.34473a7.99736 7.99736 0 0 0 -5.60352 5.09863l-48 136a8.01025 8.01025 0 0 0 -.33789 4.0332l32 184a8.00091 8.00091 0 0 0 7.88184 6.62891h40v40a7.99845 7.99845 0 0 0 6.168 7.78711zm137.832-404.28272-22.92017-27.50439h45.84058zm144 340.49561v-24h37.44531l-4.17383 24zm63.75977-175.30957-23.53177 135.30957h-40.228v-184h-16v273.66406l-120 28.23487v-386.58448l26.34277 26.34278a8.00364 8.00364 0 0 0 5.65623 2.34277c.2627 0 .52637-.0127.78907-.03906a7.99891 7.99891 0 0 0 5.86816-3.52344l28.873-43.30933 86.3584 21.5896zm-145.66114-160.26074-23.34179 35.01367-27.9336-27.93457 29.05076-34.86035zm-101.97263-27.78125 29.05078 34.86035-27.9336 27.93457-23.34181-35.01367zm-122.0137 58.06933 86.3584-21.5896 28.87305 43.30933a7.99891 7.99891 0 0 0 5.86816 3.52344q.39552.03954.78907.03906a8.00364 8.00364 0 0 0 5.65625-2.34277l26.34277-26.34278v386.58448l-120-28.23487v-273.66406h-16v184h-40.228l-23.53177-135.30957zm-19.55761 281.28223h37.44531v24h-33.27148z" data-original="#000000" class="active-path" style="fill:#000000" data-old_color="#000000"/><path d="m288 168a8.00039 8.00039 0 0 0 -8 8v64a8.00039 8.00039 0 0 0 8 8h64a8.00039 8.00039 0 0 0 8-8v-64a8.00039 8.00039 0 0 0 -8-8zm56 64h-48v-48h48z" data-original="#000000" class="active-path" style="fill:#000000" data-old_color="#000000"/></g> </svg>
