<?xml version="1.0" encoding="iso-8859-1"?>
<!-- Generator: Adobe Illustrator 19.0.0, SVG Export Plug-In . SVG Version: 6.00 Build 0)  -->
<svg version="1.1" id="Capa_1" xmlns="http://www.w3.org/2000/svg" xmlns:xlink="http://www.w3.org/1999/xlink" x="0px" y="0px"
	 viewBox="0 0 480 480" style="enable-background:new 0 0 480 480;" xml:space="preserve">
<path style="fill:#A15D30;" d="M8,311.99v-22.328c-0.001-14.998,10.415-27.985,25.056-31.24L152,231.99l152-96l25.176,22.656
	c31.363,28.213,78.786,28.788,110.824,1.344l3.376,6.752C462.2,204.388,472,245.9,472,287.99H336l-120,24H8z"/>
<g>
	<path style="fill:#824B27;" d="M336,295.99c-4.418,0.004-8.004-3.574-8.008-7.992c-0.001-0.965,0.172-1.921,0.512-2.824
		c1.048-2.776,26.616-68.208,125.552-92.944c4.249-1.211,8.675,1.253,9.886,5.502c1.211,4.249-1.253,8.675-5.502,9.886
		c-0.164,0.047-0.329,0.088-0.496,0.124c-90.88,22.72-114.232,82.456-114.448,83.056C342.325,293.922,339.337,295.992,336,295.99
		L336,295.99z"/>
	<path style="fill:#824B27;" d="M318.656,291.549c-21.039-31.82-59.475-47.433-96.744-39.296L172.92,262.75l-3.728-9.312
		c-4.251-10.635-0.395-22.791,9.208-29.032c4.088-2.648,127.592-80.52,131.456-83.024l-11.032-11.336
		c-3.888,2.52-124.984,78.248-129.12,80.928c-16.011,10.407-22.447,30.67-15.376,48.408l8.744,21.84l62.184-13.328
		c30.847-6.703,62.645,6.213,80.08,32.528c2.45,3.678,7.418,4.674,11.096,2.224S321.106,295.228,318.656,291.549z"/>
</g>
<g>
	<path style="fill:#484A4D;" d="M169.134,191.45l13.52-8.544l25.632,40.56l-13.52,8.544L169.134,191.45z"/>
	<path style="fill:#484A4D;" d="M196.289,174.439l13.534-8.549l25.638,40.589l-13.534,8.549L196.289,174.439z"/>
	<path style="fill:#484A4D;" d="M223.347,157.351l13.527-8.545l25.635,40.582l-13.527,8.545L223.347,157.351z"/>
	<path style="fill:#484A4D;" d="M250.365,140.259l13.534-8.549l25.638,40.589l-13.534,8.549L250.365,140.259z"/>
	<path style="fill:#484A4D;" d="M336,287.99h136v56H336V287.99z"/>
	<path style="fill:#484A4D;" d="M336,319.99l-120,24H8v-32h208l120-24V319.99z"/>
</g>
<path d="M450.536,163.166l-3.376-6.76c-1.977-3.951-6.783-5.552-10.734-3.575c-0.587,0.294-1.136,0.659-1.634,1.087
	c-29.017,24.737-71.851,24.221-100.264-1.208l-25.176-22.664c-2.663-2.379-6.58-2.706-9.6-0.8l-26.72,16.872l-9.08-14.4
	l-13.552,8.544l9.088,14.4l-13.528,8.536l-9.08-14.4l-13.528,8.552l9.08,14.4l-13.52,8.544l-9.08-14.4l-13.536,8.544l9.08,14.4
	l-13.536,8.52l-9.08-14.4l-13.52,8.592l8.856,14.016l-8.384,5.424c-0.88,0.568-1.6,1.28-2.456,1.912l-18.352,11.592l-117.6,26.128
	C12.966,254.619-0.083,270.892,0,289.662v54.328c0,4.418,3.582,8,8,8h208c0.537,0.001,1.073-0.053,1.6-0.16L328,329.742v14.248
	c0,4.418,3.582,8,8,8h136c4.418,0,8-3.582,8-8v-56C479.949,244.665,469.864,201.94,450.536,163.166L450.536,163.166z
	 M463.872,279.966H349.184c10.928-17.816,39.808-53.04,102.752-70.52c7.152,22.866,11.168,46.598,11.936,70.544L463.872,279.966z
	 M213.92,202.35l8,12.68l13.528-8.552l-8-12.68l13.528-8.544l8,12.68l13.52-8.552l-8-12.664L268,168.174l8,12.672l13.6-8.544
	l-8-12.68l21.6-13.6l20.672,18.608c31.554,28.254,78.291,31.397,113.344,7.624c3.528,7.2,6.656,14.616,9.512,22.128
	c-80.112,22.512-109.296,71.8-116.328,86.576l-17.064,3.408c-21.942-27.123-57.307-39.549-91.392-32.112l-49.024,10.496
	l-3.728-9.312c-3.782-9.547-1.071-20.442,6.744-27.104l10.928-6.904l8,12.68l13.536-8.56l-8-12.68L213.92,202.35z M16,289.661
	c-0.053-11.268,7.782-21.037,18.792-23.432l117.016-26c-0.745,6.495,0.123,13.073,2.528,19.152l6.232,15.576
	c1.43,3.634,5.29,5.69,9.104,4.848l55.592-11.912c25.115-5.408,51.267,2.17,69.6,20.168L215.2,303.99H16V289.661z M215.2,335.99H16
	v-16h200c0.537,0.001,1.073-0.053,1.6-0.16L328,297.741v15.688L215.2,335.99z M464,335.99H344v-40h120V335.99z"/>
<g>
</g>
<g>
</g>
<g>
</g>
<g>
</g>
<g>
</g>
<g>
</g>
<g>
</g>
<g>
</g>
<g>
</g>
<g>
</g>
<g>
</g>
<g>
</g>
<g>
</g>
<g>
</g>
<g>
</g>
</svg>
