<?xml version="1.0" encoding="iso-8859-1"?>
<!-- Generator: Adobe Illustrator 19.0.0, SVG Export Plug-In . SVG Version: 6.00 Build 0)  -->
<svg version="1.1" id="Layer_1" xmlns="http://www.w3.org/2000/svg" xmlns:xlink="http://www.w3.org/1999/xlink" x="0px" y="0px"
	 viewBox="0 0 512 512" style="enable-background:new 0 0 512 512;" xml:space="preserve">
<path style="fill:#394049;" d="M91.489,261.109l-65.293,34.708c-3.764,2.001-8.322,1.775-11.868-0.589l-9.994-6.66
	c-4.241-2.826-3.803-9.191,0.784-11.411l76.047-36.789L91.489,261.109z"/>
<path style="opacity:0.3;enable-background:new    ;" d="M81.165,240.369l-67.048,32.436c2.131,8.953,4.576,17.047,7.367,24.333
	c1.62-0.102,3.229-0.531,4.712-1.32l65.293-34.708L81.165,240.369z"/>
<path style="fill:#394049;" d="M420.519,261.109l65.293,34.708c3.764,2.001,8.322,1.775,11.868-0.589l9.994-6.66
	c4.241-2.826,3.804-9.191-0.784-11.411l-76.047-36.789L420.519,261.109z"/>
<path style="opacity:0.3;enable-background:new    ;" d="M430.842,240.369l67.048,32.436c-2.131,8.953-4.576,17.047-7.367,24.333
	c-1.62-0.102-3.228-0.531-4.712-1.32l-65.293-34.708L430.842,240.369z"/>
<path style="fill:#394049;" d="M255.996,224.231c12.438,0,15.708,6.912,19.483,23.357c1.749,7.572,4.031,15.587,6.685,24.04
	c23.814,75.825,68.126,75.913,107.253,75.913c0.045,0,4.2-0.001,4.2-0.001c18.047,0,38.439,0,56.925-11.966
	c19.736-12.777,32.655-35.987,40.661-73.047c1.549-7.172,2.513-13.991,2.891-20.448h-0.001c0.78-12.844,6.349-18.484,11.072-20.961
	c4.28-2.244,6.836-6.806,6.836-11.639v-22.82c0-4.883-3.339-9.122-8.085-10.273c-17.853-4.328-61.11-11.927-120.099-11.927
	c-81.672,0-85.999,11.641-127.817,11.641s-46.143-11.641-127.817-11.641c-58.988,0-102.246,7.598-120.099,11.927
	C3.339,177.537,0,181.777,0,186.659v22.817c0,4.833,2.557,9.395,6.836,11.639c4.723,2.477,10.292,8.117,11.072,20.961h-0.001
	c0.379,6.457,1.342,13.276,2.891,20.448c8.005,37.059,20.925,60.271,40.661,73.047c18.485,11.966,38.877,11.966,56.925,11.966
	c0,0,4.154,0.001,4.2,0.001c39.126,0,83.439-0.088,107.253-75.913c2.654-8.454,4.936-16.467,6.685-24.04
	c3.775-16.444,7.044-23.357,19.483-23.357h-0.008V224.231z"/>
<path style="fill:#A27B5A;" d="M128.184,186.091c-41.161,0-102.271-2.342-86.241,71.868c14.686,67.986,43.285,67.947,76.441,67.947
	c41.519,0,71.401,1.053,90.815-60.761C234.029,186.081,211.196,186.091,128.184,186.091z"/>
<path style="opacity:0.2;enable-background:new    ;" d="M128.184,186.091c-37.025,0-90.178-1.882-88.823,51.747
	c1.561-49.205,52.822-47.415,88.823-47.415c60.749,0,89.265,0.001,90.461,30.985C219.932,186.089,191.643,186.091,128.184,186.091z"
	/>
<path style="fill:#A27B5A;" d="M383.816,186.091c41.161,0,102.271-2.342,86.241,71.868c-14.686,67.986-43.285,67.947-76.441,67.947
	c-41.519,0-71.401,1.053-90.815-60.761C277.972,186.081,300.805,186.091,383.816,186.091z"/>
<path style="opacity:0.2;enable-background:new    ;" d="M383.824,186.091c37.025,0,90.178-1.882,88.823,51.747
	c-1.561-49.205-52.822-47.415-88.823-47.415c-60.749,0-89.265,0.001-90.461,30.985C292.076,186.089,320.364,186.091,383.824,186.091
	z"/>
<g>
	<path style="opacity:0.35;fill:#9D4D59;enable-background:new    ;" d="M128.184,186.091c-41.161,0-102.271-2.342-86.241,71.868
		c3.307,15.312,7.323,27.164,11.935,36.353l107.944-107.944C151.96,186.093,140.768,186.091,128.184,186.091z"/>
	<path style="opacity:0.35;fill:#9D4D59;enable-background:new    ;" d="M455.45,198.278L336.741,316.987
		c15.74,9.217,34.639,8.92,56.876,8.92c33.157,0,61.756,0.038,76.441-67.947C476.985,225.889,469.5,208.122,455.45,198.278z"/>
</g>
<g>
</g>
<g>
</g>
<g>
</g>
<g>
</g>
<g>
</g>
<g>
</g>
<g>
</g>
<g>
</g>
<g>
</g>
<g>
</g>
<g>
</g>
<g>
</g>
<g>
</g>
<g>
</g>
<g>
</g>
</svg>
